<?xml version="1.0" standalone="no"?>
<!DOCTYPE svg PUBLIC "-//W3C//DTD SVG 20010904//EN"
 "http://www.w3.org/TR/2001/REC-SVG-20010904/DTD/svg10.dtd">
<svg version="1.0" xmlns="http://www.w3.org/2000/svg"
 width="701.000000pt" height="189.000000pt" viewBox="0 0 701.000000 189.000000"
 preserveAspectRatio="xMidYMid meet">

<g transform="translate(0.000000,189.000000) scale(0.100000,-0.100000)"
fill="#000000" stroke="none">
<path d="M830 1324 c55 -20 110 -60 110 -80 0 -25 -64 -22 -167 8 -57 16 -84
19 -130 13 l-58 -8 67 -16 c79 -20 100 -35 96 -69 l-3 -26 -196 0 c-145 -1
-195 -4 -192 -13 7 -18 98 -53 138 -53 20 0 49 -7 65 -15 61 -31 23 -67 -71
-69 -64 -1 -56 -12 18 -25 35 -7 68 -5 124 7 41 8 83 13 91 9 24 -9 11 -46
-21 -59 l-26 -11 25 -7 c14 -5 59 -8 100 -9 l75 -1 18 43 c20 51 74 109 120
130 61 29 106 30 242 4 178 -35 281 -46 475 -51 91 -2 149 -2 130 0 -19 2
-109 13 -200 24 -330 41 -690 109 -690 131 0 5 19 9 43 9 68 0 222 28 367 67
129 35 143 37 295 37 147 0 166 -2 240 -27 44 -15 106 -43 138 -62 32 -19 63
-32 69 -29 7 4 8 2 4 -4 -4 -8 0 -12 12 -12 11 0 35 -3 53 -6 l34 -6 -35 23
c-72 46 -178 98 -255 125 -69 24 -100 28 -218 32 -161 5 -261 -7 -396 -49
-128 -41 -238 -45 -274 -11 -35 33 -120 62 -196 68 l-66 5 45 -17z"/>
<path d="M1605 1259 c-87 -7 -182 -25 -204 -38 -10 -6 -5 -15 20 -34 101 -76
369 -116 909 -136 171 -7 248 -13 282 -25 25 -9 53 -14 60 -11 8 3 21 -2 29
-12 13 -16 12 -17 -4 -4 -31 25 -25 7 9 -27 39 -38 45 -22 10 28 -47 69 -154
98 -441 120 -77 6 -155 12 -173 15 -22 2 -30 0 -26 -7 4 -7 2 -8 -5 -4 -6 4
-9 11 -6 16 7 11 -42 45 -108 75 -91 40 -212 55 -352 44z m175 -19 c70 -11
186 -63 235 -106 l30 -26 -142 6 c-173 8 -312 28 -390 56 -32 12 -65 22 -74
23 -23 2 -19 23 5 25 12 1 57 8 101 16 100 17 152 19 235 6z"/>
<path d="M5330 1015 l0 -235 65 0 65 0 0 96 c0 101 9 134 38 134 35 0 42 -21
42 -127 l0 -103 65 0 65 0 0 95 c0 114 -14 187 -42 212 -29 26 -98 24 -137 -5
l-31 -23 0 96 0 95 -65 0 -65 0 0 -235z"/>
<path d="M4661 1229 c-76 -23 -118 -80 -108 -149 7 -57 33 -87 103 -120 68
-32 84 -51 64 -75 -18 -21 -74 -19 -120 5 l-40 20 0 -59 0 -60 54 -12 c32 -7
76 -9 108 -5 97 12 150 62 152 141 1 59 -25 92 -105 132 -74 38 -89 54 -69 78
11 13 25 16 65 12 27 -2 58 -8 68 -12 15 -6 17 -1 17 43 0 28 -4 54 -10 57
-19 12 -145 14 -179 4z"/>
<path d="M3130 1227 c0 -1 -34 -100 -75 -220 -41 -120 -75 -220 -75 -223 0 -2
31 -4 68 -4 l69 0 12 40 12 40 68 0 69 0 9 -37 9 -38 71 -3 72 -3 -23 73 c-13
40 -45 142 -72 225 l-49 153 -82 0 c-46 0 -83 -1 -83 -3z m101 -179 c10 -40
19 -76 19 -80 0 -5 -20 -8 -44 -8 l-43 0 21 84 c12 46 22 83 24 81 2 -2 12
-36 23 -77z"/>
<path d="M3975 1179 c-56 -15 -60 -18 -63 -47 -3 -26 -8 -32 -28 -32 -22 0
-24 -4 -24 -45 0 -41 2 -45 25 -45 25 0 25 -2 25 -77 0 -125 49 -174 156 -158
l44 6 0 44 c0 42 -1 44 -32 47 l-33 3 -3 68 -3 67 36 0 c35 0 35 0 35 45 0 45
0 45 -34 45 -35 0 -35 1 -38 48 l-3 47 -60 -16z"/>
<path d="M4247 1096 c-79 -29 -113 -88 -105 -178 9 -93 72 -143 178 -143 115
0 180 60 180 165 0 66 -25 112 -77 143 -43 25 -128 31 -176 13z m111 -98 c15
-15 16 -82 2 -109 -7 -12 -21 -19 -40 -19 -34 0 -50 23 -50 70 0 46 16 70 48
70 16 0 33 -5 40 -12z"/>
<path d="M5110 1099 c-13 -5 -33 -17 -42 -26 -17 -15 -18 -15 -18 5 0 20 -5
22 -65 22 l-65 0 0 -235 0 -235 65 0 65 0 0 97 0 96 26 -24 c32 -30 97 -33
138 -6 78 52 89 227 18 290 -25 22 -88 31 -122 16z m30 -108 c26 -49 -1 -121
-45 -121 -29 0 -45 26 -45 71 0 59 65 95 90 50z"/>
<path d="M5826 1100 c-64 -20 -109 -87 -109 -166 0 -103 61 -159 173 -159 36
0 77 3 93 8 24 6 27 12 27 47 l0 39 -67 -6 c-61 -5 -70 -3 -87 16 l-19 21 101
0 102 0 0 43 c-1 68 -32 124 -82 147 -46 21 -85 24 -132 10z m82 -82 c7 -7 12
-20 12 -30 0 -14 -8 -18 -40 -18 -41 0 -47 8 -30 41 12 21 40 25 58 7z"/>
<path d="M6249 1081 l-29 -29 0 24 c0 23 -3 24 -65 24 l-65 0 0 -160 0 -160
65 0 65 0 0 93 c0 106 11 127 68 127 l32 0 0 55 c0 49 -2 55 -21 55 -11 0 -34
-13 -50 -29z"/>
<path d="M6463 1099 c-107 -31 -149 -195 -69 -275 49 -49 129 -66 209 -43 35
9 37 12 37 49 l0 38 -58 -5 c-58 -5 -102 7 -102 27 0 6 43 10 101 10 l102 0
-7 56 c-8 73 -31 110 -81 134 -44 21 -81 24 -132 9z m85 -81 c7 -7 12 -20 12
-30 0 -14 -8 -18 -40 -18 -41 0 -47 8 -30 41 12 21 40 25 58 7z"/>
<path d="M3482 965 c3 -132 4 -135 31 -162 36 -37 101 -39 146 -5 30 22 31 22
31 2 0 -18 6 -20 65 -20 l65 0 0 160 0 160 -65 0 -65 0 0 -96 c0 -106 -9 -134
-44 -134 -32 0 -36 15 -36 131 l0 99 -66 0 -66 0 4 -135z"/>
<path d="M1049 1025 c-25 -8 -63 -30 -85 -50 l-39 -35 53 34 c98 65 190 61
428 -19 248 -83 407 -106 748 -107 l199 -1 41 46 c51 56 83 76 149 93 l52 14
-50 -6 c-64 -8 -115 -34 -164 -85 l-40 -42 -222 12 c-335 18 -510 43 -646 91
-101 36 -256 70 -318 69 -33 0 -80 -7 -106 -14z"/>
<path d="M1043 975 c-30 -13 -73 -67 -73 -90 1 -5 7 2 15 16 28 52 125 75 185
44 15 -8 40 -29 54 -47 28 -36 35 -24 11 22 -32 61 -120 87 -192 55z"/>
<path d="M2523 954 c-23 -6 -93 -69 -93 -86 0 -5 16 4 35 20 82 73 202 38 234
-68 l11 -35 -4 43 c-9 92 -87 146 -183 126z"/>
</g>
</svg>
